<svg width="204" height="60" viewBox="0 0 204 60" fill="none" xmlns="http://www.w3.org/2000/svg">
<path fill-rule="evenodd" clip-rule="evenodd" d="M24.6309 24.5923C24.6309 23.3829 25.9274 22.6163 26.9871 23.1991L36.7734 28.5816C37.8717 29.1856 37.8717 30.7638 36.7734 31.3679L26.9871 36.7504C25.9274 37.3332 24.6309 36.5666 24.6309 35.3572V24.5923Z" fill="white"/>
<path d="M49.7834 24.0839C49.3635 10.9327 38.7071 0.319787 25.5115 0C25.1716 0 24.8917 0.259827 24.8917 0.5996L24.8717 9.43371C24.8717 9.87342 24.5318 10.2132 24.092 10.2332C10.9364 10.6329 0.319893 21.3058 0 34.497C0 34.8368 0.259913 35.1166 0.5998 35.1166L9.41686 35.1366C9.85671 35.1366 10.1966 35.4763 10.2166 35.9161C10.6365 49.0673 21.3129 59.6802 34.4885 60C34.8284 60 35.1083 59.7402 35.1083 59.4004L35.1283 50.5663C35.1283 50.1266 35.4682 49.7868 35.908 49.7668C49.0636 49.3471 59.6801 38.6742 60 25.503C60 25.1632 59.7401 24.8834 59.4002 24.8834L50.5831 24.8634C50.1433 24.8634 49.8034 24.5236 49.7834 24.0839ZM34.2486 49.7069C26.7711 49.2672 20.7731 43.1912 20.4932 35.6762C20.4732 35.3564 20.2133 35.0966 19.8934 35.0966L11.0963 35.0766C10.6365 35.0766 10.2766 34.6969 10.2966 34.2372C10.7364 26.7622 16.8144 20.7662 24.3319 20.4863C24.6518 20.4664 24.9117 20.2065 24.9117 19.8867L24.9317 11.0726C24.9317 10.6129 25.3116 10.2532 25.7714 10.2732C33.2489 10.7129 39.2469 16.7888 39.5268 24.3038C39.5468 24.6236 39.8067 24.8834 40.1266 24.8834L48.9237 24.9034C49.3835 24.9034 49.7434 25.2831 49.7234 25.7428C49.2836 33.4177 42.9057 39.5137 35.1283 39.5137L35.1083 48.9074C35.0883 49.3671 34.7084 49.7268 34.2486 49.7069Z" fill="#E60000"/>
<path d="M68.824 38V21.536H74.272L76.624 29.96C76.72 30.264 76.816 30.624 76.912 31.04C77.008 31.456 77.104 31.872 77.2 32.288C77.312 32.688 77.4 33.048 77.464 33.368H77.656C77.688 33.096 77.744 32.776 77.824 32.408C77.904 32.024 77.992 31.616 78.088 31.184C78.184 30.752 78.288 30.336 78.4 29.936L80.752 21.536H86.104V38H82.576V30.2C82.576 29.48 82.576 28.76 82.576 28.04C82.592 27.304 82.608 26.664 82.624 26.12C82.656 25.576 82.672 25.224 82.672 25.064H82.48C82.448 25.24 82.368 25.568 82.24 26.048C82.128 26.512 82 27.008 81.856 27.536C81.728 28.064 81.608 28.52 81.496 28.904L78.928 38H75.808L73.216 28.928C73.12 28.592 73.008 28.2 72.88 27.752C72.768 27.288 72.656 26.816 72.544 26.336C72.448 25.84 72.352 25.416 72.256 25.064H72.064C72.08 25.496 72.096 26.016 72.112 26.624C72.128 27.216 72.144 27.832 72.16 28.472C72.176 29.096 72.184 29.672 72.184 30.2V38H68.824ZM95.2737 38.288C93.8977 38.288 92.7297 38.056 91.7697 37.592C90.8097 37.112 90.0817 36.384 89.5857 35.408C89.0897 34.416 88.8417 33.176 88.8417 31.688C88.8417 30.168 89.0897 28.928 89.5857 27.968C90.0817 26.992 90.8097 26.272 91.7697 25.808C92.7297 25.328 93.8977 25.088 95.2737 25.088C96.6817 25.088 97.8577 25.328 98.8017 25.808C99.7617 26.272 100.49 26.992 100.986 27.968C101.482 28.928 101.73 30.168 101.73 31.688C101.73 33.176 101.482 34.416 100.986 35.408C100.49 36.384 99.7617 37.112 98.8017 37.592C97.8577 38.056 96.6817 38.288 95.2737 38.288ZM95.2737 35.696C96.0097 35.696 96.5937 35.56 97.0257 35.288C97.4737 35.016 97.8017 34.6 98.0097 34.04C98.2177 33.48 98.3217 32.792 98.3217 31.976V31.4C98.3217 30.584 98.2177 29.896 98.0097 29.336C97.8017 28.776 97.4737 28.36 97.0257 28.088C96.5937 27.8 96.0097 27.656 95.2737 27.656C94.5537 27.656 93.9697 27.8 93.5217 28.088C93.0897 28.36 92.7697 28.776 92.5617 29.336C92.3537 29.896 92.2497 30.584 92.2497 31.4V31.976C92.2497 32.792 92.3537 33.48 92.5617 34.04C92.7697 34.6 93.0897 35.016 93.5217 35.288C93.9697 35.56 94.5537 35.696 95.2737 35.696ZM107.448 38L102.744 25.376H106.272L108.12 30.704C108.216 30.976 108.328 31.336 108.456 31.784C108.6 32.232 108.744 32.704 108.888 33.2C109.032 33.696 109.152 34.144 109.248 34.544H109.368C109.48 34.176 109.6 33.752 109.728 33.272C109.856 32.776 109.984 32.304 110.112 31.856C110.256 31.392 110.376 31.008 110.472 30.704L112.32 25.376H115.68L110.952 38H107.448ZM117.309 23.528V20.648H120.645V23.528H117.309ZM117.309 38V25.376H120.645V38H117.309ZM129.444 38.288C128.052 38.288 126.884 38.056 125.94 37.592C124.996 37.112 124.284 36.384 123.804 35.408C123.324 34.432 123.084 33.192 123.084 31.688C123.084 30.168 123.324 28.928 123.804 27.968C124.284 26.992 124.988 26.272 125.916 25.808C126.86 25.328 128.012 25.088 129.372 25.088C130.652 25.088 131.732 25.32 132.612 25.784C133.492 26.232 134.156 26.936 134.604 27.896C135.052 28.84 135.276 30.064 135.276 31.568V32.432H126.468C126.5 33.168 126.612 33.792 126.804 34.304C127.012 34.816 127.324 35.2 127.74 35.456C128.172 35.696 128.74 35.816 129.444 35.816C129.828 35.816 130.172 35.768 130.476 35.672C130.796 35.576 131.068 35.432 131.292 35.24C131.516 35.048 131.692 34.808 131.82 34.52C131.948 34.232 132.012 33.904 132.012 33.536H135.276C135.276 34.336 135.132 35.032 134.844 35.624C134.556 36.216 134.156 36.712 133.644 37.112C133.132 37.496 132.516 37.792 131.796 38C131.092 38.192 130.308 38.288 129.444 38.288ZM126.516 30.32H131.844C131.844 29.84 131.78 29.424 131.652 29.072C131.54 28.72 131.38 28.432 131.172 28.208C130.964 27.984 130.708 27.824 130.404 27.728C130.116 27.616 129.788 27.56 129.42 27.56C128.812 27.56 128.3 27.664 127.884 27.872C127.484 28.064 127.172 28.368 126.948 28.784C126.74 29.184 126.596 29.696 126.516 30.32ZM138.012 38V21.536H147.036C148.252 21.536 149.26 21.752 150.06 22.184C150.876 22.616 151.484 23.224 151.884 24.008C152.284 24.776 152.484 25.664 152.484 26.672C152.484 27.744 152.244 28.696 151.764 29.528C151.284 30.344 150.588 30.968 149.676 31.4L153.036 38H149.076L146.172 32H141.588V38H138.012ZM141.588 29.168H146.556C147.276 29.168 147.836 28.952 148.236 28.52C148.636 28.072 148.836 27.472 148.836 26.72C148.836 26.24 148.748 25.832 148.572 25.496C148.396 25.144 148.14 24.88 147.804 24.704C147.468 24.528 147.052 24.44 146.556 24.44H141.588V29.168ZM160.71 38.288C159.318 38.288 158.15 38.056 157.206 37.592C156.262 37.112 155.55 36.384 155.07 35.408C154.59 34.432 154.35 33.192 154.35 31.688C154.35 30.168 154.59 28.928 155.07 27.968C155.55 26.992 156.254 26.272 157.182 25.808C158.126 25.328 159.278 25.088 160.638 25.088C161.918 25.088 162.998 25.32 163.878 25.784C164.758 26.232 165.422 26.936 165.87 27.896C166.318 28.84 166.542 30.064 166.542 31.568V32.432H157.734C157.766 33.168 157.878 33.792 158.07 34.304C158.278 34.816 158.59 35.2 159.006 35.456C159.438 35.696 160.006 35.816 160.71 35.816C161.094 35.816 161.438 35.768 161.742 35.672C162.062 35.576 162.334 35.432 162.558 35.24C162.782 35.048 162.958 34.808 163.086 34.52C163.214 34.232 163.278 33.904 163.278 33.536H166.542C166.542 34.336 166.398 35.032 166.109 35.624C165.822 36.216 165.422 36.712 164.91 37.112C164.398 37.496 163.782 37.792 163.062 38C162.358 38.192 161.574 38.288 160.71 38.288ZM157.782 30.32H163.11C163.11 29.84 163.046 29.424 162.918 29.072C162.806 28.72 162.646 28.432 162.438 28.208C162.23 27.984 161.974 27.824 161.67 27.728C161.382 27.616 161.054 27.56 160.686 27.56C160.078 27.56 159.566 27.664 159.15 27.872C158.75 28.064 158.438 28.368 158.214 28.784C158.006 29.184 157.862 29.696 157.782 30.32ZM172.325 38.288C171.909 38.288 171.461 38.24 170.981 38.144C170.517 38.048 170.077 37.88 169.661 37.64C169.245 37.384 168.901 37.024 168.629 36.56C168.373 36.08 168.245 35.472 168.245 34.736C168.245 33.856 168.437 33.128 168.821 32.552C169.205 31.976 169.749 31.528 170.453 31.208C171.173 30.872 172.029 30.64 173.021 30.512C174.013 30.384 175.109 30.32 176.309 30.32V29.384C176.309 29.016 176.245 28.696 176.117 28.424C176.005 28.152 175.797 27.936 175.493 27.776C175.205 27.616 174.797 27.536 174.269 27.536C173.741 27.536 173.309 27.6 172.973 27.728C172.653 27.856 172.421 28.024 172.277 28.232C172.149 28.424 172.085 28.64 172.085 28.88V29.168H168.845C168.829 29.088 168.821 29.016 168.821 28.952C168.821 28.872 168.821 28.776 168.821 28.664C168.821 27.928 169.045 27.296 169.493 26.768C169.941 26.224 170.573 25.808 171.389 25.52C172.205 25.232 173.157 25.088 174.245 25.088C175.413 25.088 176.389 25.24 177.173 25.544C177.973 25.848 178.581 26.296 178.997 26.888C179.429 27.48 179.645 28.224 179.645 29.12V34.856C179.645 35.144 179.725 35.36 179.885 35.504C180.061 35.632 180.253 35.696 180.461 35.696H181.253V37.88C181.093 37.96 180.845 38.04 180.509 38.12C180.173 38.216 179.765 38.264 179.285 38.264C178.821 38.264 178.405 38.192 178.037 38.048C177.685 37.92 177.389 37.736 177.149 37.496C176.909 37.24 176.741 36.936 176.645 36.584H176.477C176.205 36.92 175.869 37.216 175.469 37.472C175.085 37.728 174.629 37.928 174.101 38.072C173.589 38.216 172.997 38.288 172.325 38.288ZM173.453 35.768C173.901 35.768 174.301 35.704 174.653 35.576C175.005 35.432 175.301 35.248 175.541 35.024C175.781 34.784 175.965 34.496 176.093 34.16C176.237 33.824 176.309 33.464 176.309 33.08V32.384C175.413 32.384 174.613 32.448 173.909 32.576C173.205 32.688 172.645 32.888 172.229 33.176C171.829 33.464 171.629 33.864 171.629 34.376C171.629 34.664 171.701 34.912 171.845 35.12C171.989 35.328 172.197 35.488 172.469 35.6C172.741 35.712 173.069 35.768 173.453 35.768ZM188.455 38.288C187.111 38.288 185.983 38.056 185.071 37.592C184.159 37.112 183.463 36.384 182.983 35.408C182.519 34.416 182.287 33.176 182.287 31.688C182.287 30.168 182.519 28.928 182.983 27.968C183.463 26.992 184.159 26.264 185.071 25.784C185.999 25.304 187.127 25.064 188.455 25.064C189.319 25.064 190.095 25.168 190.783 25.376C191.487 25.584 192.095 25.904 192.607 26.336C193.119 26.768 193.503 27.304 193.759 27.944C194.031 28.568 194.167 29.312 194.167 30.176H190.831C190.831 29.6 190.743 29.128 190.567 28.76C190.391 28.392 190.119 28.112 189.751 27.92C189.399 27.728 188.951 27.632 188.407 27.632C187.767 27.632 187.247 27.776 186.847 28.064C186.447 28.352 186.151 28.776 185.959 29.336C185.767 29.896 185.671 30.592 185.671 31.424V31.976C185.671 32.792 185.767 33.48 185.959 34.04C186.167 34.6 186.479 35.024 186.895 35.312C187.311 35.584 187.855 35.72 188.527 35.72C189.071 35.72 189.519 35.624 189.871 35.432C190.239 35.24 190.519 34.952 190.711 34.568C190.903 34.184 190.999 33.72 190.999 33.176H194.167C194.167 33.992 194.031 34.72 193.759 35.36C193.503 36 193.119 36.536 192.607 36.968C192.111 37.4 191.511 37.728 190.807 37.952C190.103 38.176 189.319 38.288 188.455 38.288ZM200.437 38.288C199.637 38.288 198.989 38.144 198.493 37.856C197.997 37.568 197.637 37.184 197.413 36.704C197.189 36.208 197.077 35.664 197.077 35.072V27.944H195.517V25.376H197.197L197.821 21.776H200.413V25.376H202.717V27.944H200.413V34.52C200.413 34.904 200.501 35.2 200.677 35.408C200.853 35.6 201.141 35.696 201.541 35.696H202.717V37.904C202.525 37.968 202.301 38.024 202.045 38.072C201.789 38.136 201.517 38.184 201.229 38.216C200.941 38.264 200.677 38.288 200.437 38.288Z" fill="white"/>
</svg>
